<svg xmlns="http://www.w3.org/2000/svg" viewBox="0 0 312 322" width="312" height="322">
  <path fill="#fff" fill-rule="evenodd" d="M 186.79 11.11 Q 184.00 10.00 181.00 10.17 L 169.00 10.83 Q 166.00 11.00 163.35 12.40 L 149.65 19.60 Q 147.00 21.00 144.84 23.08 L 124.16 42.92 Q 122.00 45.00 120.20 47.40 L 102.80 70.60 Q 101.00 73.00 98.74 71.02 L 95.26 67.98 Q 93.00 66.00 90.40 64.50 L 76.60 56.50 Q 74.00 55.00 71.11 54.21 L 65.70 52.74 Q 63.00 52.00 60.20 52.00 L 57.80 52.00 Q 55.00 52.00 52.34 52.89 L 48.85 54.05 Q 46.00 55.00 43.74 56.98 L 40.26 60.02 Q 38.00 62.00 36.80 64.75 L 32.20 75.25 Q 31.00 78.00 30.79 80.99 L 30.21 89.01 Q 30.00 92.00 30.37 94.98 L 31.63 105.02 Q 32.00 108.00 32.86 110.87 L 40.14 135.13 Q 41.00 138.00 42.21 140.75 L 50.79 160.25 Q 52.00 163.00 49.29 164.29 L 33.71 171.71 Q 31.00 173.00 28.74 174.98 L 17.26 185.02 Q 15.00 187.00 13.66 189.68 L 11.34 194.32 Q 10.00 197.00 10.00 200.00 L 10.00 205.79 Q 10.00 208.00 10.70 210.10 L 11.30 211.90 Q 12.00 214.00 13.38 215.73 L 22.13 226.66 Q 24.00 229.00 26.66 230.39 L 42.34 238.61 Q 45.00 240.00 47.90 240.75 L 73.10 247.25 Q 76.00 248.00 78.99 248.30 L 103.01 250.70 Q 106.00 251.00 105.91 254.00 L 105.09 282.00 Q 105.00 285.00 105.86 287.87 L 107.14 292.13 Q 108.00 295.00 109.80 297.40 L 115.20 304.60 Q 117.00 307.00 119.79 308.11 L 124.21 309.89 Q 127.00 311.00 130.00 310.83 L 142.00 310.17 Q 145.00 310.00 147.65 308.60 L 161.35 301.40 Q 164.00 300.00 166.16 297.92 L 186.84 278.08 Q 189.00 276.00 190.80 273.60 L 208.20 250.40 Q 210.00 248.00 212.26 249.98 L 215.74 253.02 Q 218.00 255.00 220.60 256.50 L 234.40 264.50 Q 237.00 266.00 239.89 266.79 L 245.30 268.26 Q 248.00 269.00 250.80 269.00 L 253.20 269.00 Q 256.00 269.00 258.66 268.11 L 262.15 266.95 Q 265.00 266.00 267.26 264.02 L 270.74 260.98 Q 273.00 259.00 274.20 256.25 L 278.80 245.75 Q 280.00 243.00 280.20 240.01 L 280.80 230.99 Q 281.00 228.00 280.51 225.04 L 277.49 206.96 Q 277.00 204.00 275.91 201.21 L 260.09 160.79 Q 259.00 158.00 261.71 156.71 L 277.29 149.29 Q 280.00 148.00 282.26 146.02 L 293.74 135.98 Q 296.00 134.00 297.34 131.32 L 299.66 126.68 Q 301.00 124.00 301.00 121.00 L 301.00 116.00 Q 301.00 113.00 299.74 110.28 L 296.26 102.72 Q 295.00 100.00 292.88 97.88 L 289.12 94.12 Q 287.00 92.00 284.34 90.61 L 268.66 82.39 Q 266.00 81.00 263.10 80.25 L 237.90 73.75 Q 235.00 73.00 232.01 72.70 L 207.99 70.30 Q 205.00 70.00 205.09 67.00 L 205.92 38.88 Q 206.00 36.00 205.30 33.20 L 204.70 30.80 Q 204.00 28.00 202.32 25.65 L 195.74 16.44 Q 194.00 14.00 191.21 12.89 Z M 185.80 20.27 Q 188.00 20.00 190.10 20.70 L 191.90 21.30 Q 194.00 22.00 195.33 23.77 L 201.20 31.60 Q 203.00 34.00 203.59 36.94 L 204.41 41.06 Q 205.00 44.00 204.75 46.99 L 203.08 67.01 Q 203.00 68.00 202.30 68.70 L 201.70 69.30 Q 201.00 70.00 200.01 69.97 L 175.00 69.10 Q 172.00 69.00 170.62 71.67 L 157.38 97.33 Q 156.00 100.00 158.99 99.75 L 201.01 96.25 Q 204.00 96.00 207.00 96.07 L 241.00 96.93 Q 244.00 97.00 246.96 97.47 L 260.04 99.53 Q 263.00 100.00 265.80 101.07 L 281.20 106.93 Q 284.00 108.00 285.92 110.30 L 292.08 117.70 Q 294.00 120.00 294.00 123.00 L 294.00 126.00 Q 294.00 129.00 292.46 131.57 L 289.54 136.43 Q 288.00 139.00 285.72 140.95 L 283.28 143.05 Q 281.00 145.00 278.32 146.34 L 262.60 154.20 Q 261.00 155.00 259.25 154.65 L 257.75 154.35 Q 256.00 154.00 255.18 152.42 L 244.38 131.66 Q 243.00 129.00 240.00 129.17 L 211.00 130.83 Q 208.00 131.00 209.72 133.45 L 232.28 165.55 Q 234.00 168.00 235.41 170.65 L 255.59 208.35 Q 257.00 211.00 257.88 213.87 L 264.12 234.13 Q 265.00 237.00 265.00 240.00 L 265.00 245.00 Q 265.00 248.00 263.89 250.79 L 262.11 255.21 Q 261.00 258.00 258.72 259.95 L 256.28 262.05 Q 254.00 264.00 251.01 264.25 L 244.99 264.75 Q 242.00 265.00 239.26 263.78 L 226.74 258.22 Q 224.00 257.00 221.71 255.06 L 213.29 247.94 Q 211.00 246.00 212.59 243.46 L 225.44 222.89 Q 226.00 222.00 226.00 220.95 L 226.00 220.05 Q 226.00 219.00 225.43 218.12 L 209.62 193.52 Q 208.00 191.00 206.68 193.69 L 184.32 239.31 Q 183.00 242.00 181.37 244.52 L 164.63 270.48 Q 163.00 273.00 160.93 275.17 L 145.07 291.83 Q 143.00 294.00 140.38 295.46 L 136.62 297.54 Q 134.00 299.00 131.05 299.54 L 125.18 300.60 Q 123.00 301.00 120.90 300.30 L 119.10 299.70 Q 117.00 299.00 115.67 297.23 L 109.80 289.40 Q 108.00 287.00 107.46 284.05 L 106.54 278.95 Q 106.00 276.00 106.26 273.01 L 107.91 253.99 Q 108.00 253.00 108.70 252.30 L 109.30 251.70 Q 110.00 251.00 110.99 251.03 L 136.00 251.90 Q 139.00 252.00 140.38 249.33 L 153.62 223.67 Q 155.00 221.00 152.01 221.25 L 109.99 224.75 Q 107.00 225.00 104.00 224.92 L 71.00 224.08 Q 68.00 224.00 65.03 223.55 L 50.97 221.45 Q 48.00 221.00 45.20 219.93 L 29.80 214.07 Q 27.00 213.00 25.08 210.70 L 18.92 203.30 Q 17.00 201.00 17.00 198.00 L 17.00 195.00 Q 17.00 192.00 18.54 189.43 L 21.46 184.57 Q 23.00 182.00 25.28 180.05 L 27.72 177.95 Q 30.00 176.00 32.71 174.71 L 49.70 166.62 Q 51.00 166.00 52.40 166.35 L 53.60 166.65 Q 55.00 167.00 55.67 168.28 L 66.62 189.34 Q 68.00 192.00 71.00 191.83 L 100.00 190.17 Q 103.00 190.00 101.28 187.55 L 78.72 155.45 Q 77.00 153.00 75.59 150.35 L 55.41 112.65 Q 54.00 110.00 53.15 107.12 L 46.85 85.88 Q 46.00 83.00 46.00 80.00 L 46.00 76.00 Q 46.00 73.00 47.11 70.21 L 48.89 65.79 Q 50.00 63.00 52.28 61.05 L 54.72 58.95 Q 57.00 57.00 59.99 56.75 L 66.01 56.25 Q 69.00 56.00 71.74 57.22 L 84.26 62.78 Q 87.00 64.00 89.29 65.94 L 97.71 73.06 Q 100.00 75.00 98.50 77.60 L 86.50 98.40 Q 85.00 101.00 86.58 103.55 L 101.42 127.45 Q 103.00 130.00 104.32 127.31 L 125.68 83.69 Q 127.00 81.00 128.65 78.49 L 150.35 45.51 Q 152.00 43.00 154.18 40.94 L 168.82 27.06 Q 171.00 25.00 173.74 23.78 L 177.42 22.15 Q 180.00 21.00 182.80 20.65 Z"/>
</svg>
